# xmcd CD database file
#
# Track frame offsets:
#	150
#	15164
#	27369
#	41475
#	53771
#	65867
#	79267
#	91137
#	100977
#	116250
#	126729
#	139972
#	152352
#	167151
#
# Disc length: 2374 seconds
#
# Revision: 0
# Processed by: cddbd v1.5.1PL2 Copyright (c) Steve Scherf et al.
# Submitted via: CDex 1.70beta2
#
DISCID=b409440e
DTITLE=Various Artist - Country Gals Disc 2
DYEAR=2006
DGENRE=Country
TTITLE0=Jeannie C. Riley - Harper Valley P.T.A.
TTITLE1=Donna Fargo - Funny Face
TTITLE2=Barbara Fairchild - Teddy Bear Song
TTITLE3=Susan Raye - L.A. International Airport
TTITLE4=Jody Miller - Queen of the House
TTITLE5=Lynn Anderson - Top of the World
TTITLE6=Bonnie Guitar - Dark Moon
TTITLE7=Rose Maddox - Sing a Little Song of Heartache
TTITLE8=Melba Montgomery - No Charge
TTITLE9=Jan Howard - Evil On Your Mind
TTITLE10=Margo Smith - Don't Break the Heart That Loves You
TTITLE11=Jeanne Pruett - Satin Sheets
TTITLE12=Marion Worth - Shake Me I Rattle (Squeeze Me I Cry)
TTITLE13=Jean Shephard - A Satisfied Mind
EXTD=YEAR: 2006
EXTT0=
EXTT1=
EXTT2=
EXTT3=
EXTT4=
EXTT5=
EXTT6=
EXTT7=
EXTT8=
EXTT9=
EXTT10=
EXTT11=
EXTT12=
EXTT13=
PLAYORDER=
